<?xml version="1.0" encoding="UTF-8"?>
<svg id="Layer_1" data-name="Layer 1" xmlns="http://www.w3.org/2000/svg" viewBox="0 0 8 5.5">
  <path d="M5.5,2.6c-.1,0-.1-.1-.2-.1s-.1-.1-.1-.1l.1.3v.2c-.1.1-.1.2-.2.2l-.4.4-.7.9-.1.2-.1.1-.5.5-.1.2-.1.1c-.1,0-.2-.1-.3-.2-.1-.3-.2-.5-.4-.7l-.1-.3-.3-.5-.1-.1-.7-.8c-.1-.1-.2-.1-.2-.2-.1-.1-.2-.1-.2-.2s-.4-.5-.5-.8-.2-.2-.3-.4c0-.2.1-.5.2-.7l.1.1.3.2.2.3.3.2.3.3.3.3.2.2s.1,0,.1.1l.7.8.2.1s.1,0,.1.1.1,0,.1.1,0,0,.1,0l.3-.5c.2-.3.4-.5.6-.8.1-.2.2-.3.4-.4.1-.1.2-.1.3-.2l.2-.2c.3-.1.5-.3.6-.4l.4-.3c.1-.1.2-.1.3-.2l.2-.1.2-.3h1.3l-.1.1-.3.3-.4.4-.4.4-.6.6-.3.3-.2.2q-.1.1-.2.3"/>
</svg>