<svg width="40" height="40" viewBox="0 0 40 40" fill="none" xmlns="http://www.w3.org/2000/svg">
<g clip-path="url(#clip0)">
    <path d="M18.51.03c-3.42.31-5.59 1.33-7.76 2.4-2.17 1.07-7.26 5.34-8.58 8.39-1.5 3.46-2.61 9.7-2 12.07.61 2.37 1.8 8.12 5.41 10.89 3.61 2.77 7.85 6.21 15.25 6.22 8.3.01 13.68-5.63 14.78-6.92 2.54-2.96 4.74-8.31 4.34-14.05-.36-5.17-1.36-8.36-4.31-11.58-3.91-4.26-6.84-5.08-8.52-5.84-2.2-.99-6.41-1.78-8.61-1.58z" fill="#000000"/>
</g>
<defs>
    <clipPath id="clip0">
        <path fill="#fff" d="M0 0h40v40H0z"/>
    </clipPath>
</defs>
</svg>