<?xml version="1.0" encoding="UTF-8"?>
<svg id="Layer_1" data-name="Layer 1" xmlns="http://www.w3.org/2000/svg" viewBox="0 0 59.02 57.68">
  <path fill="#214B21" d="M59.02,16.72l-.03-2.46-9.25-4.81-3.12,1.24,1.41-3.24L41.85.49l-1.74-.49-4.99,5.95-2.17,1.51-8.4,6.28-.9,2.4-.83-1.5-4.06.73-2.6-.05-6.45,1.22,6.05,8.2,2.12,3.71,2.04,1.75,2.4,1.35c2.47,2.38,6.58,6.04,6.58,6.04l1.28,1.54,7.41,7.17,2.95-7.74.78-3.34,2.37-1.96s.66-.79,1.23-1.4c.57-.61,6.78-7.88,6.78-7.88l2.54-3.4,4.77-3.86h0ZM38.82,5.98c1.3,2.24,2.99,4.23,5,5.86,3.12,2.2,6.41,4.14,9.85,5.82,0,0-6.8-1.89-10.26-4.57-4.38-4.76-4.59-7.11-4.59-7.11h0ZM18.66,43.57s-1.26,1.11-1.29,1.19c-.13.16-4.71,3.24-4.71,3.24-1.04,1.47-2.18,2.89-3.41,4.22l-.91.93c-1.1,1.13-2.28,2.17-3.54,3.12-1.39.61-2.86,1.08-4.34,1.43-.22-.24-.38-.52-.47-.85-.07-.27,6.39-9.28,6.39-9.28l3.09-4.7s1.62-2.09,2.14-2.7c1.09-1.25,2.16-2.46,2.27-2.57.48-.37,1.43-1.23,2.37-2.09.87-.78,1.72-1.57,2.15-1.89.82.7,1.9,1.8,2.96,2.89.97,1,1.92,1.98,2.66,2.62l-5.38,4.44v.02Z"/>
</svg>