<svg aria-hidden="true" role="presentation" fill="none" xmlns="http://www.w3.org/2000/svg">
    <path fill-rule="evenodd" fill="#000000" clip-rule="evenodd" d="M47.5579 11.535L46.8696 9.17697L36.6695 7.02488L33.9963 9.05107L34.4896 5.54814L26.6646 0.5H24.8516L21.6393 7.57433L19.9639 9.61197L13.5503 17.9112L13.3324 20.464L12.1276 19.2392L8.41021 21.0249L5.88608 21.6774L0 24.5849L8.0315 30.8695L11.0719 33.8686L13.5159 35.0134L16.1893 35.6774C19.2069 37.3029 24.1519 39.7296 24.1519 39.7296L25.804 40.8744L34.868 45.7967L35.637 37.5433L35.4877 34.1091L37.2431 31.5907C37.2431 31.5907 37.6676 30.652 38.0577 29.9079C38.4478 29.1639 42.4752 20.4983 42.4752 20.4983L44.0012 16.5376L47.5579 11.535ZM25.2188 6.60107C27.0658 8.41546 29.2323 9.87458 31.6096 10.9053C35.2069 12.1879 38.9017 13.1794 42.6585 13.8701C42.6585 13.8701 35.6024 13.8701 31.5522 12.2217C26.0563 8.81043 25.2188 6.60107 25.2188 6.60107ZM15.8794 48.2232C15.8794 48.2232 14.9614 49.6312 14.9614 49.7114C14.8811 49.906 11.2899 54.0956 11.2899 54.0956C10.6843 55.8003 9.96746 57.4637 9.14424 59.0751L8.51313 60.2199C7.75122 61.5953 6.89237 62.9152 5.94307 64.1693C4.75839 65.1314 3.48727 65.982 2.14553 66.7105C1.86545 66.5422 1.63248 66.3059 1.46849 66.0237C1.33081 65.7833 5.13997 55.3777 5.13997 55.3777L6.86101 50.0205C6.86101 50.0205 7.85912 47.5707 8.20333 46.8381C8.91469 45.3385 9.62611 43.8846 9.70643 43.7472C10.0637 43.272 10.7546 42.1742 11.4297 41.1015C12.0556 40.107 12.6678 39.1342 12.988 38.6991C13.9651 39.1477 15.3025 39.9275 16.6171 40.694C17.8185 41.3946 19.001 42.0841 19.8721 42.4995L15.8794 48.2232Z">
    </path>
</svg>